# xmcd
#
# Track frame offsets:
#	150
#	15783
#	33286
#	46850
#	63523
#	77929
#	91577
#	105118
#	118380
#	132887
#	147879
#	166121
#	181881
#	198440
#	214216
#
# Disc length: 3098 seconds
#
# Revision: 1
# Processed by: cddbd v1.5.2PL0 Copyright (c) Steve Scherf et al.
# Submitted via: audiograbber 1.83.01
#
DISCID=ba0c180f
DTITLE=BANDA DOMÍNIO - Dominando
DYEAR=1900
DGENRE=FORRÓ
TTITLE0=MALANDRINHA
TTITLE1=AMANHÃ
TTITLE2=NUNCA MAIS
TTITLE3=DIGA
TTITLE4=REBOLA
TTITLE5=BURUNGUNDUN
TTITLE6=BEIJO DE PIRIGUETE
TTITLE7=TÁ BOMBANDO
TTITLE8=DENGUINHO
TTITLE9=O PROBLEMA É SEU
TTITLE10=CINZAS DE SAUDADE
TTITLE11=VÍCIO
TTITLE12=FORÇA DA PAIXÃO
TTITLE13=NÃO SEI O NOME DE DELA
TTITLE14=FAZER AMOR
EXTD=GRAVAÇÃO - AUDISTUDIO PRODUÇÕES\naudistudiopro@gmail.com
EXTT0=
EXTT1=
EXTT2=
EXTT3=
EXTT4=
EXTT5=
EXTT6=
EXTT7=
EXTT8=
EXTT9=
EXTT10=
EXTT11=
EXTT12=
EXTT13=
EXTT14=
PLAYORDER=
